<svg width="121" height="38" viewBox="0 0 121 38" fill="none" xmlns="http://www.w3.org/2000/svg">
<g id="logo">
<path id="Vector" d="M121 8.81348V23.0605C121 25.61 120.747 27.7823 120.246 29.572C119.742 31.3645 118.98 32.8165 117.952 33.9252C117.322 34.609 116.579 35.1774 115.724 35.6361C115.195 35.9231 114.618 36.1651 114.002 36.3649C112.395 36.8827 110.487 37.1387 108.281 37.1387C108.129 37.1387 107.954 37.1303 107.757 37.119C107.563 37.1331 107.386 37.1387 107.231 37.1387C105.025 37.1387 103.117 36.8827 101.511 36.3649C100.894 36.1651 100.323 35.9231 99.7912 35.6389C98.9357 35.1802 98.1957 34.609 97.5625 33.9252C96.5383 32.8165 95.77 31.3645 95.2663 29.572C94.7626 27.7795 94.5122 25.61 94.5122 23.0605V8.81348H99.7405V23.2294C99.7405 24.3746 99.8362 25.4636 100.03 26.4992C100.225 27.5347 100.593 28.4605 101.133 29.2709C101.677 30.0841 102.414 30.7398 103.34 31.2407C104.268 31.7388 105.489 32.0427 107.001 32.1552C107.254 32.1552 107.504 32.144 107.757 32.1243C108.008 32.144 108.261 32.1552 108.512 32.1552C110.02 32.0455 111.241 31.7388 112.17 31.2407C113.098 30.7426 113.836 30.087 114.376 29.2709C114.916 28.4605 115.285 27.5347 115.479 26.4992C115.673 25.4664 115.769 24.3746 115.769 23.2294V8.81348H120.997H121Z" fill="#3C3C3B"/>
<path id="Vector_2" d="M86.4333 20.01V19.7342C86.3939 17.59 86.0365 15.7694 85.3584 14.2752C84.6802 12.7781 83.7713 11.5484 82.6288 10.5889C81.4864 9.62651 80.161 8.92584 78.6499 8.48123C77.1388 8.03944 75.532 7.81714 73.8296 7.81714C72.3607 7.81714 70.9256 8.01974 69.5327 8.42777C68.1398 8.83579 66.8932 9.43516 65.7901 10.2287C64.6871 11.025 63.7753 12.0296 63.0578 13.2509C62.8017 13.6899 62.5822 14.1598 62.4021 14.6522H68.4155C68.7251 14.3314 69.0824 14.05 69.4792 13.8052C70.1349 13.3972 70.8721 13.1046 71.6854 12.916C72.4958 12.7303 73.3287 12.6403 74.1813 12.6403C75.034 12.6403 75.9316 12.7613 76.7645 13.0004C77.5975 13.2424 78.3432 13.6026 79.0016 14.081C79.6601 14.5622 80.1947 15.17 80.6 15.9101C80.9039 16.4644 81.0924 17.0919 81.1684 17.7898C81.2078 18.1472 81.2078 18.5073 81.1824 18.8647L81.0896 20.2323C79.4631 19.7539 77.8648 19.3994 76.2974 19.1771C74.7272 18.9576 73.2471 18.845 71.8542 18.845C70.2671 18.845 68.8039 19.011 67.4701 19.3459C66.1334 19.6779 64.9713 20.2042 63.9836 20.9245C62.9987 21.6449 62.222 22.5763 61.6621 23.7244C61.0993 24.8697 60.8179 26.2401 60.8179 27.8272C60.8179 29.4142 61.1471 30.7368 61.8056 31.9018C62.464 33.0667 63.3335 34.0347 64.4197 34.8114C65.5031 35.588 66.7215 36.1677 68.0779 36.556C69.4342 36.9444 70.7877 37.1385 72.144 37.1385C73.8099 37.1385 75.4363 36.8656 77.0234 36.3169C78.6105 35.7709 79.964 34.8395 81.0896 33.5226V36.4744H86.4333V35.3939C86.4333 34.7495 86.4417 33.8968 86.4614 32.8444C86.4811 31.792 86.4896 30.5905 86.4896 29.2426V25.1117L90.0886 24.5573V19.3487C89.4301 19.495 88.7998 19.6245 88.2004 19.737C87.6011 19.8468 87.0101 19.9368 86.4305 20.0128L86.4333 20.01ZM81.1487 27.1828C81.1093 27.6668 80.8673 28.207 80.4199 28.8036C79.9753 29.3973 79.3759 29.9545 78.6189 30.4779C77.8648 30.9985 77.0009 31.4346 76.0357 31.7864C75.0677 32.1409 74.0406 32.3154 72.9601 32.3154C72.0315 32.3154 71.1591 32.2057 70.3459 31.9834C69.5327 31.7582 68.8179 31.4543 68.1989 31.0632C67.577 30.6721 67.0845 30.2162 66.7187 29.6956C66.3501 29.175 66.1672 28.5982 66.1672 27.965C66.1672 27.1828 66.3782 26.5327 66.8032 26.0122C67.2281 25.4916 67.7627 25.0639 68.4015 24.729C69.0402 24.3941 69.7353 24.1606 70.4894 24.0311C71.2436 23.9017 71.9527 23.837 72.6111 23.837C73.4638 23.837 74.3445 23.9129 75.2506 24.0621C76.1623 24.2084 77.0122 24.366 77.8085 24.5348C78.6021 24.7009 79.2971 24.8584 79.8965 25.0076C80.4958 25.1567 80.9151 25.2299 81.1459 25.2299V27.1828H81.1487Z" fill="#3C3C3B"/>
<path id="Vector_3" d="M50.5303 0H45.4202V26.7185C45.4202 28.0129 45.6903 29.0935 46.2334 30.295C46.7765 31.4966 47.5391 32.715 48.5268 33.6211C49.5145 34.5272 50.6654 35.09 51.9823 35.6443C53.2992 36.1987 54.8075 36.4773 56.3974 36.4773V31.5613C54.9116 31.5613 53.5609 31.1561 52.4663 30.3794C52.4551 30.371 52.4438 30.3626 52.4325 30.3569C51.231 29.493 50.5303 28.0945 50.5303 26.6144V13.4169H56.3946V8.81611H50.5303V0.00281241V0Z" fill="#3C3C3B"/>
<g id="Group">
<path id="Vector_4" d="M38.4781 0.74851C37.9097 0.250441 37.2174 0 36.3957 0C35.5741 0 34.9381 0.250441 34.3725 0.74851C33.8041 1.24658 33.5227 1.86565 33.5227 2.60572C33.5227 3.34579 33.8069 3.96486 34.3725 4.46293C34.9409 4.961 35.6135 5.21144 36.3957 5.21144C37.178 5.21144 37.9097 4.961 38.4781 4.46293C39.0465 3.96486 39.3279 3.34579 39.3279 2.60572C39.3279 1.86565 39.0437 1.24658 38.4781 0.74851Z" fill="#3C3C3B"/>
<path id="Vector_5" d="M38.979 8.81348H33.8689V36.4746H38.979V8.81348Z" fill="#3C3C3B"/>
</g>
<path id="Vector_6" d="M23.9861 8.81348L14.7226 30.1264L5.45907 8.81348H0L12.0212 36.4746H17.4212L29.4452 8.81348H23.9861Z" fill="#3C3C3B"/>
</g>
</svg>
